<svg width="1280" height="720" viewBox="0 0 1280 720" fill="none" xmlns="http://www.w3.org/2000/svg" role="img" aria-labelledby="title desc">
  <title id="title">Mini Spectrum Maze Reboot Thumbnail</title>
  <desc id="desc">네온 톤의 미로 위에서 빨강, 노랑, 파랑 컬러 전환으로 길을 찾는 프로젝트 썸네일</desc>

  <defs>
    <linearGradient id="bg" x1="160" y1="80" x2="1120" y2="640" gradientUnits="userSpaceOnUse">
      <stop stop-color="#090B24"/>
      <stop offset="1" stop-color="#17113A"/>
    </linearGradient>
    <linearGradient id="mazeGlow" x1="240" y1="160" x2="1040" y2="560" gradientUnits="userSpaceOnUse">
      <stop stop-color="#68F7FF"/>
      <stop offset="1" stop-color="#7D79FF"/>
    </linearGradient>
    <radialGradient id="light" cx="0" cy="0" r="1" gradientUnits="userSpaceOnUse" gradientTransform="translate(640 360) rotate(90) scale(320 560)">
      <stop offset="0" stop-color="#A7B5FF" stop-opacity="0.46"/>
      <stop offset="1" stop-color="#A7B5FF" stop-opacity="0"/>
    </radialGradient>
    <filter id="softBlur" x="0" y="0" width="1280" height="720" filterUnits="userSpaceOnUse" color-interpolation-filters="sRGB">
      <feGaussianBlur stdDeviation="36"/>
    </filter>
  </defs>

  <rect width="1280" height="720" fill="url(#bg)"/>
  <ellipse cx="640" cy="600" rx="520" ry="160" fill="#180F42" filter="url(#softBlur)"/>

  <g opacity="0.18" stroke="#FFFFFF" stroke-width="1.3">
    <path d="M180 126H1100"/>
    <path d="M180 186H1100"/>
    <path d="M180 246H1100"/>
    <path d="M180 306H1100"/>
    <path d="M180 366H1100"/>
    <path d="M180 426H1100"/>
    <path d="M180 486H1100"/>
    <path d="M180 546H1100"/>
    <path d="M220 96V576"/>
    <path d="M300 96V576"/>
    <path d="M380 96V576"/>
    <path d="M460 96V576"/>
    <path d="M540 96V576"/>
    <path d="M620 96V576"/>
    <path d="M700 96V576"/>
    <path d="M780 96V576"/>
    <path d="M860 96V576"/>
    <path d="M940 96V576"/>
    <path d="M1020 96V576"/>
  </g>

  <g stroke="url(#mazeGlow)" stroke-width="16" stroke-linecap="round" stroke-linejoin="round">
    <path d="M252 548V154H430V272H344V426H516V332H606V510H780V390H944V510H1024"/>
    <path d="M1028 512V218H876V292H724V158H582V246H500"/>
    <path d="M252 214H336V296H428V200H598V310H692V250H796V340H936"/>
  </g>

  <circle cx="252" cy="548" r="18" fill="#F8FBFF"/>
  <circle cx="1028" cy="512" r="18" fill="#8E8E98"/>

  <g>
    <rect x="530" y="276" width="220" height="168" rx="26" fill="#0D1330" stroke="#DEE4FF" stroke-opacity="0.25"/>
    <rect x="560" y="316" width="44" height="44" rx="12" fill="#FF4D5F"/>
    <rect x="618" y="316" width="44" height="44" rx="12" fill="#FFD84A"/>
    <rect x="676" y="316" width="44" height="44" rx="12" fill="#33A1FF"/>
    <path d="M570 392H708" stroke="#C8D0FF" stroke-width="8" stroke-linecap="round"/>
    <path d="M570 412H672" stroke="#C8D0FF" stroke-width="8" stroke-linecap="round" opacity="0.55"/>
  </g>

  <rect x="0" y="0" width="1280" height="720" fill="url(#light)"/>

  <text x="640" y="122" text-anchor="middle" fill="#F4F7FF" font-size="64" font-weight="700" font-family="'Pretendard','Noto Sans KR','Inter',sans-serif" letter-spacing="2">MINI SPECTRUM MAZE</text>
  <text x="640" y="168" text-anchor="middle" fill="#A5B2FF" font-size="28" font-weight="500" font-family="'Pretendard','Noto Sans KR','Inter',sans-serif" letter-spacing="1.4">빛의 색을 바꿔 길을 여는 3D 미로 퍼즐</text>
</svg>
